<svg width="25" height="25" viewBox="0 0 25 25" fill="none" xmlns="http://www.w3.org/2000/svg">
<path d="M17.5 21.5C16.386 21.5 15.441 21.112 14.665 20.336C13.8883 19.5587 13.5 18.6133 13.5 17.5C13.5 16.3867 13.8883 15.4417 14.665 14.665C15.4417 13.8883 16.3867 13.5 17.5 13.5C18.6133 13.5 19.5587 13.8883 20.336 14.665C21.1133 15.4417 21.5013 16.3867 21.5 17.5C21.4987 18.6133 21.1107 19.5587 20.336 20.336C19.5613 21.1133 18.616 21.5013 17.5 21.5ZM5.5 11.6V7.31699C5.5 6.97699 5.59833 6.66932 5.795 6.39399C5.99167 6.11865 6.24333 5.91866 6.55 5.79399L11.935 3.79399C12.1297 3.72332 12.318 3.68799 12.5 3.68799C12.682 3.68799 12.8707 3.72332 13.066 3.79399L18.45 5.79399C18.7567 5.91866 19.0083 6.11865 19.205 6.39399C19.4017 6.66932 19.5 6.97699 19.5 7.31699V10.887C19.5 11.119 19.407 11.3097 19.221 11.459C19.035 11.6083 18.8197 11.6607 18.575 11.616C18.403 11.5707 18.225 11.54 18.041 11.524C17.8563 11.508 17.676 11.5 17.5 11.5C15.836 11.5 14.42 12.084 13.252 13.252C12.084 14.42 11.5 15.836 11.5 17.5C11.5 17.918 11.5467 18.3427 11.64 18.774C11.7327 19.2053 11.8827 19.6473 12.09 20.1C12.2147 20.3653 12.1787 20.604 11.982 20.816C11.7853 21.028 11.5543 21.078 11.289 20.966C10.5243 20.6247 9.831 20.1937 9.209 19.673C8.58767 19.153 8.02 18.5313 7.506 17.808C6.87933 16.9267 6.38833 15.9597 6.033 14.907C5.67767 13.8543 5.5 12.752 5.5 11.6ZM17.5 17.5C17.9167 17.5 18.271 17.3543 18.563 17.063C18.855 16.7717 19.0007 16.4173 19 16C18.9993 15.5827 18.8537 15.2287 18.563 14.938C18.2723 14.6473 17.918 14.5013 17.5 14.5C17.082 14.4987 16.728 14.6447 16.438 14.938C16.148 15.2313 16.002 15.5853 16 16C15.998 16.4147 16.144 16.769 16.438 17.063C16.732 17.357 17.086 17.5027 17.5 17.5ZM17.5 20.5C17.9293 20.5 18.3403 20.4177 18.733 20.253C19.125 20.0883 19.4627 19.843 19.746 19.517C19.8167 19.4303 19.8403 19.337 19.817 19.237C19.7943 19.1383 19.7357 19.0617 19.641 19.007C19.311 18.8317 18.9657 18.7033 18.605 18.622C18.2443 18.5407 17.876 18.5 17.5 18.5C17.124 18.5 16.7557 18.5407 16.395 18.622C16.0343 18.7033 15.6893 18.832 15.36 19.008C15.2647 19.0613 15.2057 19.138 15.183 19.238C15.1597 19.3373 15.183 19.4307 15.253 19.518C15.537 19.8433 15.875 20.0883 16.267 20.253C16.659 20.4177 17.07 20.5 17.5 20.5Z" fill="white"/>
</svg>
