<svg width="25" height="25" viewBox="0 0 25 25" fill="none" xmlns="http://www.w3.org/2000/svg">
<path d="M12.5 3.5C14.71 3.5 16.5 5.29 16.5 7.5C16.5 9.71 14.71 11.5 12.5 11.5C10.29 11.5 8.5 9.71 8.5 7.5C8.5 5.29 10.29 3.5 12.5 3.5ZM16.5 14.04C16.5 15.1 16.22 17.57 14.31 20.33L13.5 15.5L14.44 13.62C13.82 13.55 13.17 13.5 12.5 13.5C11.83 13.5 11.18 13.55 10.56 13.62L11.5 15.5L10.69 20.33C8.78 17.57 8.5 15.1 8.5 14.04C6.11 14.74 4.5 16 4.5 17.5V21.5H20.5V17.5C20.5 16 18.9 14.74 16.5 14.04Z" fill="currentColor"/>
</svg>
