<svg width="52" height="52" viewBox="0 0 52 52" fill="none" xmlns="http://www.w3.org/2000/svg">
<path d="M26.0001 2.16669C23.1269 2.16669 20.3714 3.30805 18.3398 5.3397C16.3081 7.37134 15.1667 10.1268 15.1667 13V17.3334H13.0001C11.8508 17.3334 10.7486 17.7899 9.93595 18.6026C9.12329 19.4152 8.66675 20.5174 8.66675 21.6667V43.3334C8.66675 44.4826 9.12329 45.5848 9.93595 46.3975C10.7486 47.2101 11.8508 47.6667 13.0001 47.6667H39.0001C40.1494 47.6667 41.2516 47.2101 42.0642 46.3975C42.8769 45.5848 43.3334 44.4826 43.3334 43.3334V21.6667C43.3334 20.5174 42.8769 19.4152 42.0642 18.6026C41.2516 17.7899 40.1494 17.3334 39.0001 17.3334H36.8334V13C36.8334 11.5774 36.5532 10.1686 36.0088 8.85428C35.4644 7.53992 34.6664 6.34566 33.6604 5.3397C32.6544 4.33373 31.4602 3.53575 30.1458 2.99133C28.8315 2.4469 27.4227 2.16669 26.0001 2.16669ZM26.0001 6.28335C29.7051 6.28335 32.7167 9.29502 32.7167 13V17.3334H19.2834V13C19.2834 9.29502 22.2951 6.28335 26.0001 6.28335ZM26.4117 22.75C28.4484 22.75 30.0734 23.205 31.2434 24.0934C32.4134 25.0034 32.9984 26.2167 32.9984 27.7334C32.9984 28.6867 32.6734 29.5317 32.0451 30.3334C31.4167 31.1134 30.5934 31.72 29.5967 32.175C29.0334 32.5 28.6651 32.825 28.4701 33.1934C28.2751 33.5834 28.1667 34.06 28.1667 34.6667H23.8334C23.8334 33.5834 24.0501 32.8467 24.4617 32.3267C24.9167 31.8067 25.6534 31.2 26.7801 30.5067C27.3434 30.2034 27.7984 29.8134 28.1667 29.3367C28.4701 28.8817 28.6434 28.34 28.6434 27.7334C28.6434 27.0834 28.4484 26.6067 28.0584 26.2384C27.6684 25.8484 27.0834 25.675 26.4117 25.675C25.8267 25.675 25.3501 25.8267 24.9167 26.13C24.5701 26.4334 24.3534 26.8884 24.3534 27.495H20.0851C19.9767 26 20.5834 24.7 21.7751 23.92C22.9451 23.14 24.4834 22.75 26.4117 22.75ZM23.8334 36.8334H28.1667V41.1667H23.8334V36.8334Z" fill="#175690"/>
</svg>
