<svg width="52" height="52" viewBox="0 0 52 52" fill="none" xmlns="http://www.w3.org/2000/svg">
<path d="M10.8333 45.5C9.64167 45.5 8.62189 45.0761 7.774 44.2282C6.92611 43.3803 6.50144 42.3598 6.5 41.1667V10.8333C6.5 9.64167 6.92467 8.62189 7.774 7.774C8.62333 6.92611 9.64311 6.50144 10.8333 6.5H41.1667C42.3583 6.5 43.3788 6.92467 44.2282 7.774C45.0775 8.62333 45.5014 9.64311 45.5 10.8333V41.1667C45.5 42.3583 45.0761 43.3788 44.2282 44.2282C43.3803 45.0775 42.3598 45.5014 41.1667 45.5H10.8333ZM26 10.8333V24.1042C26 24.5375 26.1806 24.8538 26.5417 25.0532C26.9028 25.2525 27.2639 25.2431 27.625 25.025L30.2792 23.4C30.6403 23.1833 31.0194 23.075 31.4167 23.075C31.8139 23.075 32.1931 23.1833 32.5542 23.4L35.2083 25.025C35.5694 25.2417 35.9306 25.2511 36.2917 25.0532C36.6528 24.8553 36.8333 24.5389 36.8333 24.1042V10.8333H26Z" fill="#175690"/>
</svg>
