<svg width="41" height="41" viewBox="0 0 41 41" fill="none" xmlns="http://www.w3.org/2000/svg">
<rect width="41" height="41" rx="8" fill="#175690"/>
<path d="M20.0001 17.75V21.43C20.0001 21.78 20.1901 22.11 20.4901 22.29L23.6101 24.14C23.9701 24.35 24.4301 24.23 24.6401 23.88C24.8501 23.52 24.7401 23.06 24.3801 22.85L21.5101 21.14V17.74C21.5001 17.34 21.1601 17 20.7501 17C20.3401 17 20.0001 17.34 20.0001 17.75ZM30.0001 18.5V13.21C30.0001 12.76 29.4601 12.54 29.1501 12.86L27.3701 14.64C26.4333 13.7032 25.3015 12.9845 24.0553 12.5351C22.8091 12.0857 21.4791 11.9167 20.1601 12.04C15.9701 12.42 12.5201 15.79 12.0601 19.98C11.8169 22.3294 12.507 24.6802 13.9816 26.5253C15.4562 28.3703 17.5969 29.5618 19.9421 29.8427C22.2873 30.1235 24.6488 29.4712 26.5174 28.0265C28.3859 26.5817 29.6116 24.4603 29.9301 22.12C30.0001 21.52 29.5301 21 28.9301 21C28.4301 21 28.0101 21.37 27.9501 21.86C27.5201 25.35 24.5101 28.05 20.9001 28C17.1901 27.95 14.0601 24.82 14.0001 21.1C13.9401 17.2 17.1101 14 21.0001 14C22.9301 14 24.6801 14.79 25.9501 16.05L23.8601 18.14C23.5401 18.46 23.7601 19 24.2101 19H29.5001C29.7801 19 30.0001 18.78 30.0001 18.5Z" fill="white"/>
</svg>
