<svg width="41" height="41" viewBox="0 0 41 41" fill="none" xmlns="http://www.w3.org/2000/svg">
<rect width="41" height="41" rx="8" fill="#175690"/>
<path d="M11 16V24C11 24.5304 11.2107 25.0391 11.5858 25.4142C11.9609 25.7893 12.4696 26 13 26H14M11 16V14C11 13.4696 11.2107 12.9609 11.5858 12.5858C11.9609 12.2107 12.4696 12 13 12H15M11 16C12.0609 16 13.0783 15.5786 13.8284 14.8284C14.5786 14.0783 15 13.0609 15 12M15 12H28M18.764 21C18.2531 20.4285 17.9804 19.683 18.0018 18.9167C18.0233 18.1504 18.3373 17.4214 18.8793 16.8793C19.4214 16.3373 20.1504 16.0233 20.9167 16.0018C21.683 15.9804 22.4285 16.2531 23 16.764M11 29L29 11M30.22 27.047L30.769 20.786C30.844 19.921 30.171 19.156 29.265 19.076L28.445 19.005M26.666 29.891L28.306 30.035C29.212 30.114 30.008 29.477 30.084 28.613L30.221 27.047C28.408 26.889 26.817 28.162 26.666 29.891ZM26.666 29.891L16 28.958M20.347 25.481C20.756 26.001 21.287 26.266 22.017 26.33C23.376 26.449 24.57 25.494 24.683 24.197C24.744 23.501 24.598 22.928 24.132 22.454" stroke="white" stroke-width="2" stroke-linecap="round" stroke-linejoin="round"/>
</svg>
