<svg width="41" height="41" viewBox="0 0 41 41" fill="none" xmlns="http://www.w3.org/2000/svg">
<rect width="41" height="41" rx="8" fill="#175690"/>
<path d="M15 32C14.45 32 13.9793 31.8043 13.588 31.413C13.1967 31.0217 13.0007 30.5507 13 30V12C13 11.45 13.196 10.9793 13.588 10.588C13.98 10.1967 14.4507 10.0007 15 10H25C25.55 10 26.021 10.196 26.413 10.588C26.805 10.98 27.0007 11.4507 27 12V16H25V15H15V27H25V26H27V30C27 30.55 26.8043 31.021 26.413 31.413C26.0217 31.805 25.5507 32.0007 25 32H15ZM23.95 25L19.7 20.75L21.1 19.35L23.95 22.2L29.6 16.55L31 17.95L23.95 25Z" fill="white"/>
</svg>
