<svg width="31" height="28" viewBox="0 0 31 28" fill="none" xmlns="http://www.w3.org/2000/svg">
<g clip-path="url(#clip0_51_7)">
<path d="M2 23.3481V22.0138C2 16.8556 6.18155 12.6741 11.3398 12.6741" stroke="#0E561E" stroke-width="2.8" stroke-linecap="round" stroke-linejoin="round"/>
<path d="M20.4177 13.0924C21.274 12.1521 22.7535 12.1521 23.6098 13.0924C24.0426 13.5677 24.6646 13.8253 25.3067 13.7953C26.577 13.7359 27.6232 14.7821 27.5638 16.0524C27.5338 16.6945 27.7915 17.3165 28.2667 17.7493C29.207 18.6056 29.207 20.0851 28.2667 20.9414C27.7915 21.3742 27.5338 21.9962 27.5638 22.6383C27.6232 23.9086 26.577 24.9548 25.3067 24.8954C24.6646 24.8654 24.0426 25.1231 23.6098 25.5983C22.7535 26.5386 21.274 26.5386 20.4177 25.5983C19.9849 25.1231 19.3629 24.8654 18.7208 24.8954C17.4505 24.9548 16.4043 23.9086 16.4637 22.6383C16.4937 21.9962 16.236 21.3742 15.7608 20.9414C14.8205 20.0851 14.8205 18.6056 15.7608 17.7493C16.236 17.3165 16.4937 16.6945 16.4637 16.0524C16.4043 14.7821 17.4505 13.7359 18.7208 13.7953C19.3629 13.8253 19.9849 13.5677 20.4177 13.0924Z" stroke="#0E561E" stroke-width="2.8"/>
<path d="M19.8304 19.3452L21.2861 20.8007L24.1971 17.8896" stroke="#0E561E" stroke-width="2.8" stroke-linecap="round" stroke-linejoin="round"/>
<path d="M11.3398 12.674C14.2873 12.674 16.6769 10.2845 16.6769 7.337C16.6769 4.38946 14.2873 2 11.3398 2C8.39226 2 6.00281 4.38946 6.00281 7.337C6.00281 10.2845 8.39226 12.674 11.3398 12.674Z" stroke="#0E561E" stroke-width="2.8" stroke-linecap="round" stroke-linejoin="round"/>
</g>
<defs>
<clipPath id="clip0_51_7">
<rect width="31" height="28" fill="white"/>
</clipPath>
</defs>
</svg>
