<svg width="26" height="35" viewBox="0 0 26 35" fill="none" xmlns="http://www.w3.org/2000/svg">
<path d="M13.1 30.4C20.2244 30.4 26 24.6244 26 17.5C26 10.3755 20.2244 4.59998 13.1 4.59998C5.97548 4.59998 0.199951 10.3755 0.199951 17.5C0.199951 24.6244 5.97548 30.4 13.1 30.4Z" fill="#0E561E"/>
<path d="M5.51172 22.4323V21.7627C5.51172 19.1743 7.61009 17.0759 10.1986 17.0759C12.787 17.0759 14.8854 19.1743 14.8854 21.7627V22.4323" stroke="white" stroke-width="1.51765" stroke-linecap="round"/>
<path d="M13.5464 18.415C13.5464 16.5662 15.0452 15.0673 16.8941 15.0673C18.743 15.0673 20.2419 16.5662 20.2419 18.415V18.7498" stroke="white" stroke-width="1.51765" stroke-linecap="round"/>
<path d="M10.1985 17.076C11.6777 17.076 12.8768 15.8769 12.8768 14.3978C12.8768 12.9187 11.6777 11.7196 10.1985 11.7196C8.7194 11.7196 7.52032 12.9187 7.52032 14.3978C7.52032 15.8769 8.7194 17.076 10.1985 17.076Z" stroke="white" stroke-width="1.51765" stroke-linecap="round" stroke-linejoin="round"/>
<path d="M16.894 15.0673C18.0034 15.0673 18.9027 14.1681 18.9027 13.0587C18.9027 11.9493 18.0034 11.05 16.894 11.05C15.7847 11.05 14.8854 11.9493 14.8854 13.0587C14.8854 14.1681 15.7847 15.0673 16.894 15.0673Z" stroke="white" stroke-width="1.51765" stroke-linecap="round" stroke-linejoin="round"/>
</svg>
