<svg width="27" height="24" viewBox="0 0 27 24" fill="none" xmlns="http://www.w3.org/2000/svg">
<g clip-path="url(#clip0_73_20)">
<path fill-rule="evenodd" clip-rule="evenodd" d="M5.51733 20.9773V12.2944H9.35156C10.9841 12.5877 12.6013 13.4833 14.2273 14.5334H17.2046C18.5537 14.6163 19.259 16.009 17.9495 16.9225C16.9058 17.7039 15.5325 17.6591 14.113 17.5315C13.1396 17.4822 13.0979 18.8122 14.113 18.8189C14.4668 18.848 14.8513 18.7629 15.1853 18.7629C16.9431 18.7629 18.3999 18.4181 19.2876 16.9986L19.7271 15.9373L24.1655 13.6983C26.3826 12.9549 27.9602 15.3171 26.3254 16.9605C23.2353 19.2617 19.9291 21.2455 16.4553 22.8827C14.0098 24.3985 11.5642 24.347 9.12524 22.8827L5.51733 20.9773ZM11.1204 0L25.429 4.4019L23.2778 12.0549L22.2715 11.8981L23.8096 6.30059L23.8315 6.22894C23.8996 5.97362 23.8657 5.7012 23.7373 5.47127C23.6088 5.24134 23.3962 5.07261 23.146 5.00196L22.6626 4.86762V4.85194L20.3862 4.23846L10.7952 1.15309L11.1204 0ZM8.75391 1.54492L23.0713 5.94458L20.9114 13.5975L6.60278 9.19787L8.75391 1.54492ZM13.7395 6.41702C13.9804 6.15577 14.2919 5.97322 14.6347 5.89249C14.9774 5.81176 15.336 5.83648 15.6649 5.96351C15.9939 6.09054 16.2784 6.31417 16.4826 6.6061C16.6868 6.89802 16.8013 7.24511 16.8118 7.60342C16.8223 7.96173 16.7282 8.31515 16.5414 8.61893C16.3547 8.92272 16.0836 9.16321 15.7627 9.30995C15.4417 9.4567 15.0853 9.50311 14.7384 9.4433C14.3916 9.38349 14.0699 9.22015 13.8142 8.97397C13.4721 8.64465 13.2722 8.19055 13.2582 7.71123C13.2442 7.23191 13.4173 6.76649 13.7395 6.41702ZM10.8413 3.41226L20.3093 6.40358C20.2256 6.70225 20.2611 7.02254 20.408 7.2947C20.5549 7.56685 20.8014 7.76885 21.0938 7.8567L20.2544 10.8839C20.1087 10.8415 19.9562 10.8288 19.8057 10.8464C19.6551 10.8641 19.5095 10.9119 19.377 10.9869C19.2446 11.062 19.128 11.1629 19.0339 11.2839C18.9397 11.4049 18.8699 11.5436 18.8284 11.6921L9.35815 8.70081C9.44171 8.40154 9.40565 8.08074 9.25785 7.80847C9.11005 7.53621 8.86253 7.3346 8.56934 7.24769L9.41748 4.22054C9.56334 4.26326 9.71604 4.27623 9.86683 4.2587C10.0176 4.24118 10.1635 4.19351 10.2962 4.11842C10.4289 4.04334 10.5457 3.94231 10.64 3.82113C10.7343 3.69996 10.8042 3.56101 10.8457 3.41226H10.8413ZM0 11.4682H4.36377V21.8505H0V11.4682Z" fill="#333333"/>
</g>
<defs>
<clipPath id="clip0_73_20">
<rect width="27" height="24" fill="white"/>
</clipPath>
</defs>
</svg>
