<svg width="26" height="26" viewBox="0 0 26 26" fill="none" xmlns="http://www.w3.org/2000/svg">
<g clip-path="url(#clip0_51_64)">
<path d="M11.4222 2.6684C12.2964 1.70851 13.8067 1.70851 14.6809 2.6684L15.8051 3.90277C16.2468 4.3879 16.8818 4.65092 17.5374 4.62029L19.2051 4.54235C20.5019 4.48173 21.5699 5.54972 21.5093 6.84661L21.4313 8.51432C21.4007 9.16976 21.6637 9.80476 22.1489 10.2466L23.3832 11.3707C24.3432 12.2449 24.3432 13.7552 23.3832 14.6294L22.1489 15.7536C21.6637 16.1953 21.4007 16.8303 21.4313 17.4858L21.5093 19.1535C21.5699 20.4504 20.5019 21.5184 19.2051 21.4578L17.5374 21.3798C16.8818 21.3492 16.2468 21.6122 15.8051 22.0973L14.6809 23.3317C13.8067 24.2917 12.2964 24.2917 11.4222 23.3317L10.2981 22.0973C9.85627 21.6122 9.22127 21.3492 8.56584 21.3798L6.89811 21.4578C5.60123 21.5184 4.53325 20.4504 4.59386 19.1535L4.6718 17.4858C4.70243 16.8303 4.43941 16.1953 3.95428 15.7536L2.71992 14.6294C1.76003 13.7552 1.76003 12.2449 2.71992 11.3707L3.95428 10.2466C4.43941 9.80476 4.70243 9.16976 4.6718 8.51432L4.59386 6.8466C4.53325 5.54972 5.60123 4.48173 6.89812 4.54235L8.56584 4.62029C9.22127 4.65092 9.85627 4.3879 10.2981 3.90277L11.4222 2.6684Z" stroke="#333333" stroke-width="2.68"/>
<path d="M9.74609 13.0002L11.9499 15.2039L16.3574 10.7964" stroke="#333333" stroke-width="2.68" stroke-linecap="round" stroke-linejoin="round"/>
</g>
<defs>
<clipPath id="clip0_51_64">
<rect width="26" height="26" fill="white"/>
</clipPath>
</defs>
</svg>
