<svg width="27" height="35" viewBox="0 0 27 35" fill="none" xmlns="http://www.w3.org/2000/svg">
<path d="M13.395 30.425C20.5333 30.425 26.32 24.6382 26.32 17.5C26.32 10.3617 20.5333 4.57495 13.395 4.57495C6.25669 4.57495 0.469971 10.3617 0.469971 17.5C0.469971 24.6382 6.25669 30.425 13.395 30.425Z" fill="#0E561E"/>
<path d="M6.55237 14.4415L13.171 17.3831L13.619 16.3751L7.00038 13.4335L6.55237 14.4415ZM13.9465 24.9686V16.8791H12.8435V24.9686H13.9465ZM13.619 17.3831L20.2377 14.4415L19.7896 13.4335L13.171 16.3751L13.619 17.3831Z" fill="black"/>
<mask id="mask0_53_134" style="mask-type:luminance" maskUnits="userSpaceOnUse" x="6" y="13" width="15" height="12">
<path d="M6.55237 14.4415L13.171 17.3831L13.619 16.3751L7.00038 13.4335L6.55237 14.4415ZM13.9465 24.9686V16.8791H12.8435V24.9686H13.9465ZM13.619 17.3831L20.2377 14.4415L19.7896 13.4335L13.171 16.3751L13.619 17.3831Z" fill="white"/>
</mask>
<g mask="url(#mask0_53_134)">
<path d="M6.55238 14.4415L5.16284 13.824L4.54529 15.2135L5.93481 15.8311L6.55238 14.4415ZM13.171 17.3832L12.5535 18.7727L13.943 19.3903L14.5606 18.0007L13.171 17.3832ZM13.619 16.3752L15.0086 16.9927L15.6261 15.6032L14.2366 14.9856L13.619 16.3752ZM7.00039 13.4335L7.61796 12.044L6.22842 11.4264L5.61086 12.8159L7.00039 13.4335ZM13.9465 24.9686V26.4892H15.4671V24.9686H13.9465ZM13.9465 16.8792H15.4671V15.3586H13.9465V16.8792ZM12.8435 16.8792V15.3586H11.3229V16.8792H12.8435ZM12.8435 24.9686H11.3229V26.4892H12.8435V24.9686ZM13.619 17.3832L12.2295 18.0007L12.8471 19.3903L14.2366 18.7727L13.619 17.3832ZM20.2377 14.4415L20.8553 15.8311L22.2448 15.2135L21.6272 13.824L20.2377 14.4415ZM19.7896 13.4335L21.1792 12.8159L20.5616 11.4264L19.1721 12.044L19.7896 13.4335ZM13.171 16.3752L12.5535 14.9856L11.1639 15.6032L11.7815 16.9927L13.171 16.3752ZM5.93481 15.8311L12.5535 18.7727L13.7886 15.9936L7.16995 13.052L5.93481 15.8311ZM14.5606 18.0007L15.0086 16.9927L12.2295 15.7576L11.7815 16.7656L14.5606 18.0007ZM14.2366 14.9856L7.61796 12.044L6.38282 14.823L13.0015 17.7647L14.2366 14.9856ZM5.61086 12.8159L5.16284 13.824L7.94192 15.0591L8.38994 14.0511L5.61086 12.8159ZM15.4671 24.9686V16.8792H12.426V24.9686H15.4671ZM13.9465 15.3586H12.8435V18.3997H13.9465V15.3586ZM11.3229 16.8792V24.9686H14.3641V16.8792H11.3229ZM12.8435 26.4892H13.9465V23.448H12.8435V26.4892ZM14.2366 18.7727L20.8553 15.8311L19.6201 13.052L13.0014 15.9936L14.2366 18.7727ZM21.6272 13.824L21.1792 12.8159L18.4001 14.0511L18.8482 15.0591L21.6272 13.824ZM19.1721 12.044L12.5535 14.9856L13.7886 17.7647L20.4072 14.823L19.1721 12.044ZM11.7815 16.9927L12.2295 18.0007L15.0086 16.7656L14.5606 15.7576L11.7815 16.9927Z" fill="white"/>
</g>
<path d="M6.77637 21.7402V14.2242C6.77637 14.0498 6.87906 13.8918 7.0384 13.821L13.2158 11.0755C13.3299 11.0248 13.4601 11.0248 13.5742 11.0755L19.7517 13.821C19.911 13.8918 20.0137 14.0498 20.0137 14.2242V21.7402C20.0137 21.9145 19.911 22.0726 19.7517 22.1434L13.5742 24.8889C13.4601 24.9396 13.3299 24.9396 13.2158 24.8889L7.0384 22.1434C6.87906 22.0726 6.77637 21.9145 6.77637 21.7402Z" stroke="white" stroke-width="1.52059" stroke-linecap="round" stroke-linejoin="round"/>
<path d="M10.0857 12.4667L16.4423 15.2919C16.6016 15.3626 16.7044 15.5207 16.7044 15.695V18.3499" stroke="white" stroke-width="1.52059" stroke-linecap="round" stroke-linejoin="round"/>
</svg>
